<mxfile host="app.diagrams.net" modified="2022-01-27T18:37:15.188Z" agent="5.0 (Windows NT 10.0; Win64; x64) AppleWebKit/537.36 (KHTML, like Gecko) Chrome/97.0.4692.99 Safari/537.36" etag="-h4o3WdPu-KbzeJVjnAL" version="16.2.4" type="github">
  <diagram name="Page-1" id="5f0bae14-7c28-e335-631c-24af17079c00">
    <mxGraphModel dx="718" dy="476" grid="1" gridSize="10" guides="1" tooltips="1" connect="1" arrows="1" fold="1" page="1" pageScale="1" pageWidth="1100" pageHeight="850" background="none" math="0" shadow="0">
      <root>
        <mxCell id="0" />
        <mxCell id="1" parent="0" />
        <mxCell id="39150e848f15840c-1" value="Logic (Python 3)" style="verticalAlign=top;align=left;spacingTop=8;spacingLeft=2;spacingRight=12;shape=cube;size=10;direction=south;fontStyle=4;html=1;rounded=0;shadow=0;comic=0;labelBackgroundColor=none;strokeWidth=1;fontFamily=Verdana;fontSize=12" parent="1" vertex="1">
          <mxGeometry x="120" y="70" width="330" height="220" as="geometry" />
        </mxCell>
        <mxCell id="39150e848f15840c-2" value="UI" style="verticalAlign=top;align=left;spacingTop=8;spacingLeft=2;spacingRight=12;shape=cube;size=10;direction=south;fontStyle=4;html=1;rounded=0;shadow=0;comic=0;labelBackgroundColor=none;strokeWidth=1;fontFamily=Verdana;fontSize=12" parent="1" vertex="1">
          <mxGeometry x="530" y="70" width="330" height="220" as="geometry" />
        </mxCell>
        <mxCell id="39150e848f15840c-3" value="Controller (Python 3)&lt;br&gt;" style="verticalAlign=top;align=left;spacingTop=8;spacingLeft=2;spacingRight=12;shape=cube;size=10;direction=south;fontStyle=4;html=1;rounded=0;shadow=0;comic=0;labelBackgroundColor=none;strokeWidth=1;fontFamily=Verdana;fontSize=12" parent="1" vertex="1">
          <mxGeometry x="370" y="410" width="260" height="150" as="geometry" />
        </mxCell>
        <mxCell id="39150e848f15840c-5" value="DEAP" style="shape=component;align=left;spacingLeft=36;rounded=0;shadow=0;comic=0;labelBackgroundColor=none;strokeWidth=1;fontFamily=Verdana;fontSize=12;html=1;" parent="1" vertex="1">
          <mxGeometry x="310" y="140" width="120" height="55" as="geometry" />
        </mxCell>
        <mxCell id="39150e848f15840c-7" value="JavaScript&lt;br&gt;Framework" style="shape=component;align=left;spacingLeft=36;rounded=0;shadow=0;comic=0;labelBackgroundColor=none;strokeWidth=1;fontFamily=Verdana;fontSize=12;html=1;" parent="1" vertex="1">
          <mxGeometry x="630" y="150" width="120" height="60" as="geometry" />
        </mxCell>
        <mxCell id="LdJZI8r-lVdlDIqZZvVl-1" value="&lt;span style=&quot;color: rgb(32 , 33 , 36) ; font-family: &amp;#34;roboto&amp;#34; , &amp;#34;arial&amp;#34; , sans-serif ; letter-spacing: 0.1px ; background-color: rgb(255 , 255 , 255)&quot;&gt;&lt;font style=&quot;font-size: 11px&quot;&gt;pyAudioAnalysis &lt;/font&gt;&lt;/span&gt;" style="rounded=0;whiteSpace=wrap;html=1;" parent="1" vertex="1">
          <mxGeometry x="150" y="110" width="120" height="40" as="geometry" />
        </mxCell>
        <mxCell id="LdJZI8r-lVdlDIqZZvVl-2" value="&lt;span style=&quot;color: rgb(32 , 33 , 36) ; font-family: &amp;#34;roboto&amp;#34; , &amp;#34;arial&amp;#34; , sans-serif ; letter-spacing: 0.1px ; background-color: rgb(255 , 255 , 255)&quot;&gt;&lt;font style=&quot;font-size: 11px&quot;&gt;SoundRecognizing&lt;/font&gt;&lt;/span&gt;" style="rounded=0;whiteSpace=wrap;html=1;fontSize=11;" parent="1" vertex="1">
          <mxGeometry x="150" y="160" width="120" height="40" as="geometry" />
        </mxCell>
        <mxCell id="LdJZI8r-lVdlDIqZZvVl-3" value="&lt;span style=&quot;color: rgb(32 , 33 , 36) ; font-family: &amp;#34;roboto&amp;#34; , &amp;#34;arial&amp;#34; , sans-serif ; letter-spacing: 0.1px ; background-color: rgb(255 , 255 , 255)&quot;&gt;&lt;font style=&quot;font-size: 11px&quot;&gt;BreakingToSegments&lt;br&gt;Automatically&lt;/font&gt;&lt;/span&gt;" style="rounded=0;whiteSpace=wrap;html=1;fontSize=11;" parent="1" vertex="1">
          <mxGeometry x="150" y="210" width="120" height="60" as="geometry" />
        </mxCell>
        <mxCell id="LdJZI8r-lVdlDIqZZvVl-4" value="" style="endArrow=classic;html=1;rounded=0;fontSize=11;entryX=0.167;entryY=0.182;entryDx=0;entryDy=0;entryPerimeter=0;" parent="1" target="39150e848f15840c-5" edge="1">
          <mxGeometry width="50" height="50" relative="1" as="geometry">
            <mxPoint x="270" y="130" as="sourcePoint" />
            <mxPoint x="320" y="80" as="targetPoint" />
          </mxGeometry>
        </mxCell>
        <mxCell id="LdJZI8r-lVdlDIqZZvVl-5" value="" style="endArrow=classic;html=1;rounded=0;fontSize=11;entryX=0.028;entryY=0.582;entryDx=0;entryDy=0;entryPerimeter=0;" parent="1" target="39150e848f15840c-5" edge="1">
          <mxGeometry width="50" height="50" relative="1" as="geometry">
            <mxPoint x="270" y="185" as="sourcePoint" />
            <mxPoint x="320" y="135" as="targetPoint" />
          </mxGeometry>
        </mxCell>
        <mxCell id="LdJZI8r-lVdlDIqZZvVl-6" value="" style="endArrow=classic;html=1;rounded=0;fontSize=11;" parent="1" edge="1">
          <mxGeometry width="50" height="50" relative="1" as="geometry">
            <mxPoint x="270" y="240" as="sourcePoint" />
            <mxPoint x="320" y="190" as="targetPoint" />
          </mxGeometry>
        </mxCell>
        <mxCell id="LdJZI8r-lVdlDIqZZvVl-7" value="&lt;font style=&quot;font-size: 18px&quot;&gt;Spotify&lt;/font&gt;" style="shape=cylinder3;whiteSpace=wrap;html=1;boundedLbl=1;backgroundOutline=1;size=15;fontSize=11;" parent="1" vertex="1">
          <mxGeometry x="270" y="660" width="100" height="110" as="geometry" />
        </mxCell>
        <mxCell id="LdJZI8r-lVdlDIqZZvVl-8" value="&lt;span style=&quot;font-size: 18px&quot;&gt;YouTube&lt;/span&gt;" style="shape=cylinder3;whiteSpace=wrap;html=1;boundedLbl=1;backgroundOutline=1;size=15;fontSize=11;" parent="1" vertex="1">
          <mxGeometry x="400" y="660" width="100" height="110" as="geometry" />
        </mxCell>
        <mxCell id="LdJZI8r-lVdlDIqZZvVl-9" value="&lt;font style=&quot;font-size: 18px&quot;&gt;Shazam&lt;/font&gt;" style="shape=cylinder3;whiteSpace=wrap;html=1;boundedLbl=1;backgroundOutline=1;size=15;fontSize=11;" parent="1" vertex="1">
          <mxGeometry x="540" y="660" width="100" height="110" as="geometry" />
        </mxCell>
        <mxCell id="LdJZI8r-lVdlDIqZZvVl-10" value="" style="endArrow=classic;html=1;rounded=0;fontSize=18;entryX=1.005;entryY=0.744;entryDx=0;entryDy=0;entryPerimeter=0;" parent="1" target="39150e848f15840c-3" edge="1">
          <mxGeometry width="50" height="50" relative="1" as="geometry">
            <mxPoint x="320" y="670" as="sourcePoint" />
            <mxPoint x="525" y="520" as="targetPoint" />
          </mxGeometry>
        </mxCell>
        <mxCell id="LdJZI8r-lVdlDIqZZvVl-11" value="" style="endArrow=classic;html=1;rounded=0;fontSize=18;entryX=0;entryY=0;entryDx=150;entryDy=135;entryPerimeter=0;" parent="1" target="39150e848f15840c-3" edge="1">
          <mxGeometry width="50" height="50" relative="1" as="geometry">
            <mxPoint x="450" y="670" as="sourcePoint" />
            <mxPoint x="550" y="520" as="targetPoint" />
          </mxGeometry>
        </mxCell>
        <mxCell id="LdJZI8r-lVdlDIqZZvVl-12" value="" style="endArrow=classic;html=1;rounded=0;fontSize=18;" parent="1" target="39150e848f15840c-3" edge="1">
          <mxGeometry width="50" height="50" relative="1" as="geometry">
            <mxPoint x="590" y="670" as="sourcePoint" />
            <mxPoint x="575" y="520" as="targetPoint" />
          </mxGeometry>
        </mxCell>
        <mxCell id="LdJZI8r-lVdlDIqZZvVl-13" value="Manager" style="shape=component;align=left;spacingLeft=36;rounded=0;shadow=0;comic=0;labelBackgroundColor=none;strokeWidth=1;fontFamily=Verdana;fontSize=12;html=1;" parent="1" vertex="1">
          <mxGeometry x="440" y="450" width="100" height="60" as="geometry" />
        </mxCell>
        <mxCell id="LdJZI8r-lVdlDIqZZvVl-14" value="" style="endArrow=classic;startArrow=classic;html=1;rounded=0;fontSize=18;entryX=0;entryY=0;entryDx=220;entryDy=170;entryPerimeter=0;exitX=0;exitY=0;exitDx=80;exitDy=260;exitPerimeter=0;" parent="1" source="39150e848f15840c-3" target="39150e848f15840c-1" edge="1">
          <mxGeometry width="50" height="50" relative="1" as="geometry">
            <mxPoint x="460" y="390" as="sourcePoint" />
            <mxPoint x="510" y="340" as="targetPoint" />
            <Array as="points">
              <mxPoint x="280" y="490" />
            </Array>
          </mxGeometry>
        </mxCell>
        <mxCell id="LdJZI8r-lVdlDIqZZvVl-15" value="" style="endArrow=classic;startArrow=classic;html=1;rounded=0;fontSize=18;entryX=0;entryY=0;entryDx=220;entryDy=170;entryPerimeter=0;" parent="1" target="39150e848f15840c-2" edge="1">
          <mxGeometry width="50" height="50" relative="1" as="geometry">
            <mxPoint x="630" y="490" as="sourcePoint" />
            <mxPoint x="760" y="340" as="targetPoint" />
            <Array as="points">
              <mxPoint x="690" y="490" />
            </Array>
          </mxGeometry>
        </mxCell>
        <mxCell id="LdJZI8r-lVdlDIqZZvVl-17" value="&lt;font style=&quot;font-size: 11px&quot;&gt;External Libraries&lt;/font&gt;" style="text;html=1;strokeColor=none;fillColor=none;align=center;verticalAlign=middle;whiteSpace=wrap;rounded=0;fontSize=18;" parent="1" vertex="1">
          <mxGeometry x="140" y="90" width="160" height="20" as="geometry" />
        </mxCell>
        <mxCell id="ntnb6PqTSjDg8r1_vXzV-1" value="accessing REST API using requests.py lib" style="rounded=0;whiteSpace=wrap;html=1;" vertex="1" parent="1">
          <mxGeometry x="430" y="530" width="120" height="30" as="geometry" />
        </mxCell>
        <mxCell id="ntnb6PqTSjDg8r1_vXzV-4" value="" style="endArrow=classic;startArrow=classic;html=1;rounded=0;entryX=0.5;entryY=1;entryDx=0;entryDy=0;exitX=0.5;exitY=0;exitDx=0;exitDy=0;" edge="1" parent="1" source="ntnb6PqTSjDg8r1_vXzV-1" target="LdJZI8r-lVdlDIqZZvVl-13">
          <mxGeometry width="50" height="50" relative="1" as="geometry">
            <mxPoint x="420" y="650" as="sourcePoint" />
            <mxPoint x="470" y="600" as="targetPoint" />
          </mxGeometry>
        </mxCell>
      </root>
    </mxGraphModel>
  </diagram>
</mxfile>
